{"title":"Apradh (1972) 2CDrip","uid":8215192,"size":839356624,"categoryP":"video","categoryS":"movies","magnet":"?xt=urn:btih:c9e56276b50f81fdfe0dca984a9dcc752957f83d&amp;dn=Apradh+%281972%29+2CDrip&amp;tr=udp%3A%2F%2Ftracker.openbittorrent.com%3A80&amp;tr=udp%3A%2F%2Fopen.demonii.com%3A1337&amp;tr=udp%3A%2F%2Ftracker.coppersurfer.tk%3A6969&amp;tr=udp%3A%2F%2Fexodus.desync.com%3A6969","seeders":0,"leechers":3,"uploader":"badababa","files":8,"time":1362328553,"description":" Ripped by : Badababa\n\nMovie Imformation\n\n\nGenres:Action | Thriller | Romance\nYear :1972\nLanguage : Hindi\nIMDb: http://www.imdb.com/title/tt0175450/\nFormat : MPEG-4\nFormat profile : Base Media / Version 2\nCodec ID : mp42\nFile size : 798 MiB\nDuration : 2h 8mn\n\nVideo\n\nFormat : AVC\nFormat/Info : Advanced Video Codec\nDuration : 2h 8mn\nBit rate mode : Variable\nBit rate : 800 Kbps\nWidth : 854 pixels\nHeight : 480 pixels\nDisplay aspect ratio : 16:9\nFrame rate mode : Constant\nFrame rate : 25.000 fps\nStream size : 735 MiB (92%)\n\nAudio\n\nAudio Language : Hindi\nFormat : AAC\nFormat/Info : Advanced Audio Codec\nFormat profile : LC\nCodec ID : 40\nDuration : 2h 8mn\nBit rate mode : Variable\nBit rate : 64.2 Kbps\nMaximum bit rate : 122 Kbps\nChannel(s) : 2 channels\nChannel positions : Front: L R\nSampling rate : 48.0 KHz\nStream size : 59.0 MiB\n\n\nStoryline\n\n\nWhile in Germany, gorgeous looking Rita, who belongs to a gang of thieves, cons a jeweler into parting with a very expensive necklace, and is on the run from the police. She hitches a ride from ace Grand Prix racer, Ram Khanna, and plants the necklace on his person. He later graciously returns the necklace to her, and she in turns it in to her gang-leader. When the gang-leader has the necklace appraised it turns out to be a fake, and Rita is now on the run from her own gang. She again takes shelter with Ram, tells him the truth and that her real name is Meena. Ram wins the Grand Prix, and both return to India. Upon their entry at the airport, they are searched, and Ram is found to be in possession of diamonds hidden in medicinal capsules. He is immediately arrested, tried in Court, and sentenced to several years in prison. Years later he is released, and finds Meena awaiting. Both get married and decide to settle down and live life honestly. But trouble comes knocking on their door ...\n\n\nCast\n\nFeroz Khan\n\nMumtaz\n\nPrem Chopra\n\nFaryal\n\nIftekhar\n\nKuljeet\n\nShyam Kumar\n\nBrahm Bhardwaj\n\nM.B. Shetty\n\n\n\nScreens\n\n[img]http://i69.servimg.com/u/f69/13/88/29/14/118.jpg[/img]\n[img]http://i69.servimg.com/u/f69/13/88/29/14/214.jpg[/img]\n[img]http://i69.servimg.com/u/f69/13/88/29/14/312.jpg[/img]\n[img]http://i69.servimg.com/u/f69/13/88/29/14/412.jpg[/img]\n[img]http://i69.servimg.com/u/f69/13/88/29/14/511.jpg[/img]\n[img]http://i69.servimg.com/u/f69/13/88/29/14/apradh11.jpg[/img]\n","torrent":{"xt":"urn:btih:c9e56276b50f81fdfe0dca984a9dcc752957f83d","amp;dn":"Apradh+%281972%29+2CDrip","amp;tr":["udp%3A%2F%2Ftracker.openbittorrent.com%3A80","udp%3A%2F%2Fopen.demonii.com%3A1337","udp%3A%2F%2Ftracker.coppersurfer.tk%3A6969","udp%3A%2F%2Fexodus.desync.com%3A6969"],"infoHash":"c9e56276b50f81fdfe0dca984a9dcc752957f83d","infoHashBuffer":{"type":"Buffer","data":[201,229,98,118,181,15,129,253,254,13,202,152,74,157,204,117,41,87,248,61]},"announce":[],"urlList":[]}}